<?xml version="1.0" encoding="UTF-8" standalone="no"?>
<svg id="svg2" xmlns:rdf="http://www.w3.org/1999/02/22-rdf-syntax-ns#" xmlns="http://www.w3.org/2000/svg" height="1002pt" width="1875pt" version="1.1" xmlns:cc="http://creativecommons.org/ns#" xmlns:dc="http://purl.org/dc/elements/1.1/" viewBox="0 0 1875 1002">
 <metadata id="metadata16">
  <rdf:RDF>
   <cc:Work rdf:about="">
    <dc:format>image/svg+xml</dc:format>
    <dc:type rdf:resource="http://purl.org/dc/dcmitype/StillImage"/>
    <dc:title/>
   </cc:Work>
  </rdf:RDF>
 </metadata>
 <g>
  <path id="path4" d="m383.21 0h3.51c5.03 0.7 6.6 9.45 12.27 6.22 6.78-4.05 16.62-6.22 23.57-1.96 0.95 7.58 8.51 5.19 14.08 5.02 3.7 5.86-2.96 10.08-8.11 7.32-11.88 8.52-15.35 33.35-1.84 40.77-3.13 8.78-11.9 0.76-14.69-4.69-3.39-12.48-3.62-28.3 7.46-37.11 1.18-7.9-9.22-7.1-14.89-6.92 4.23 5.34-3.66 6.07-6.85 8.21-3.46 6.13-5.43 14.06 0.3 19.36-2.28 4.37-7.41 0-9.16-2.72-6.96-9.72 12.12-23.46-5.19-26.31-4.04 2.19-7.59 7.68-13.14 8.5-25.99 10.48-7.04 60.48 18.8 47.26-1.42 6.67-9.25 4.81-14.19 4.28-20.72-2.79-30.52-31.94-16.34-46.75-4.85-6.21-24.03-2-22.36 9.65-23.77 12.29-5.52 37.95-1.53 56.64 1.84 8.65 12.64 2.72 18.25 6.5 2.43 9.4-10.57 4.86-15.34 5.36-16.17-4.59-26.68-18.78-27.82-35.25 14.25-2.79-0.51-19.45 10.35-25.88 2.19-1.95 6.46-7.59-0.81-5.93-13.57-1.16-18.33 13.52-27.21 20.71-8.77 7.15-7.91 18.37-4.48 27.85 5.32-3.19 7.41-11 13.2-12.86 3.46 9.77-9.21 15.19-9.51 24.62-3.32 10.81 3.15 20.89 10.8 27.78 4.47 3.64 12.82 5.94 11.55 13.18-7.15 1.68-16.2 2.89-22.04-2.73-9.48-8.66-24.85-8.42-31.98-20.03-3.14 5.31 6.31 12.94 7.14 19.63 4.03 17.59 31.01 2.93 33.91 19.01-6.98 10.51-23.26 7.9-33.65 4.01-2.15 4.99 1.62 12.7 7.42 14.96 1.62-2.56 6.16-7.83 8.01-2.64 3.76 11.59 10.29 22.83 23.01 26.21-1.07-6.98-4.27-14.25-1.81-21.23 7.67 0.63 6.41 10.62 8.95 15.76 4.24 10.58 16.3 11.72 25.68 14.78-2.38-5.64-20.6-24.19-8.4-30.39 6.87 12.03 19.12 29.01 36.29 24.31-12.74-4.7-10.71-19.58-15.13-30.3-9.81-1.57-21.66 5.77-29.61-2.92-5.33-4.2-17.42-15.09-4.92-17.21 11.06 14.07 27.67 14.55 44.35 13.37-7.56 6.5 4.86 13.4 6.05 20.14 6.21 15.13 24.34 6.2 36.66 5.39-2.82-8.83-16.44-16.14-10.45-26.63 11.2 0.8 15.47 21.2 29.61 15.81 7.07-3.95 15.65-0.93 22.64-4.29-0.67-6.45-20.14-14.02-11.63-21.5 13.7 10.61 31.81 9.11 45.81 18.39 10.61-10.61 23.97-22.01 27.41-37.49-6.55 1.93-11.68 8.24-19.18 6.54 10.33-10.95 24.32-25.27 16.93-41.66-8.47-10.43 6.57-28.79-9.97-34.12-6.54 7.71-12.69 25.79-24.52 24.29 10.85-8.64 13.41-23.35 17.04-35.02-5.81-5.81-11.82-11.46-17.85-17.04-2.37 3.57-0.56 11.4-6.6 11.75 4.53 4.46-5.77 25.34-14.85 19.08 10.89-13.49 12.04-30.55 8.69-46.8-4.6-7.86-12.92-5.15-20.11-5.89 9.48-13.04 26.2-1.5 31.32 9.42 6.71 12.43 22.37 17.22 27.06 30.97 5.38 6.95 16.99 11.26 15.53 21.93-2.32 8.17-4.14 18.36 3.03 24.73 7.47 11.74-4.6 25.38 0.13 37.45 24.91 20.76 58.54 5.88 87.53 10.63 17.88 4.08 36.22 1.13 53.54-3.87 56.14 2.86 107.83 42.14 130.18 93.29 7.45 25.66 25.16 46.89 41.22 67.74 28.16 45.6 58.54 90.03 77.65 140.34 10.36 19.7-0.21 39.79-4.53 59.11 11.05 3.57 22.44-6.18 34.29-5.42 68.86-7.14 135.46-31.73 205.26-30.79 18.5-0.85 34.6 9.77 50.8 17.23 19.4 16.52 35.5 37.34 56 52.2 89.8 20.9 164.1 79.83 228.4 143.3 15.7 8.57 36.1-2.58 53.7 3.38 34.9 7.54 71.1-0.55 105.7 8.27 37.8 9.05 76.6-7.39 114.1 2.98 31 12.84 71.4-0.17 97 25.14 26.7 8.82 15.6 45.39 21.1 66.62 5.7 15.99 9.6 32.31 9.2 49.48v19.83c-3.4 8.23-12.3 14.76-10 23.74-17.6 3.71-37.6 3.66-51.4 17.64-44.9 1.17-89.1 10.59-133.5 17.33-44.8 9.38-91.2 8.26-136 17.49-66.1 5.38-132.4 15.32-198.9 10.72-12.8 1.79-25.8 1.12-38.6 3.28-49.4 10.78-100.5 7.72-150.6 11.37-23 3.43-46.3 2.79-69.5 3.42-19.2 2.72-36.9 11.95-56.3 13.76-35.06 7.9-71.18 0.81-106.52 5.58-22.13 3.92-44.67 6.08-66.92 2.2-61.7 6.69-123.71 8.64-185.33 16.49-20.55 6.33-40.99-5.1-61.89-0.93-27.21-2.34-53.65 6.56-80.76 3.81-7.51-1.45-14.37 2.55-21.56 3.75h-25.57c-32 0.7-63.14-5.52-94.67-9.26-33.55 4.32-67.57 3.66-101.3 2.71-28.42-5.87-57.39 3.83-85.82-1.3-31.72-4.22-63.24-10.03-95.12-13.03-32.13 0.85-66.99-0.68-94.42-19.51-4.81-11.87-8.7-24.92-5.94-37.83 1.46-14.35-7.22-29.19 0.54-42.74 8.76-14.36 26.68-17.82 37.54-29.86 11.34-2.59 15.3-15.82 26.95-18.77 28.36-24.74 62.49-43.12 97.93-55.15-2.84-28.05 0.37-57.44-0.05-85.94-0.19-31.67 11.53-63.16 3.09-94.68-9.75-31.3-1.6-64.27 7.58-94.62 7.68-15.95 14.62-35.01 32.89-41.38-4.7-25.4-8.67-51.37-5.54-77.31-0.29-20.61 10.1-39.26 12.56-59.37-4.18-24.65-4.44-51.36 6.83-74.29 8.67-28.1 23.34-54.72 45.11-74.7-8.23-6.72-8.16-16.49-9.2-26.3-6.76-9.15-15.73-20.5-10.39-32.44 6.58-10.49-0.66-22.9 5.43-33.55 10.02-16.14 19.19-34.67 38.18-41.84 4.43-13.7 21.57-17.14 34.27-15.3 7.44-7.57 16.69-17.16 28.49-13.29 11.78 4.04 16.86-9.68 26.62-12.25m-105.7 60.54c-2.99 5.51-7.04 11.82-4.71 18.27 1.34 2.83 7.69 4.04 5.51 7.73-3.66 0.94-8.32-0.33-10.05-3.91-3.17-9.66-12.21 6.51-8.17 10.96 8.27 5.82 8.57 19 19.8 21.29-1.51-10.98 1.49-21.9 6.13-31.75-8.27-3.78-8.81-16.97-8.51-22.59m229.93 82.6c-8.62 7.03-12.08 19.38-21.52 25.87-7.21 5.15-16.55-0.38-24 3.81 2.76 5.35 3.69 11.26 4.8 17.1 7.7-6.1 3.74 7.85 5.56 11.83 5.81 1 11.69-0.71 17.55-0.58-0.35 6.31 5.17 12.92 1.33 18.91-12.18 11.69-26.51 22.22-43.9 24.19 0.38 9.16 16.13 18.45 5.99 26.96-10.86 8.25 11.43 8.29 15.24 3.05 7.25 4.22 3.08 18.05-6.78 16.47-6.57 1.77-20.02 1.6-19.48 11.12 28.29 9.38 43.72-18.79 51.85-40.79 3.01-10.84 13.55-17.84 14.66-29.52 0.29-29.2 1.16-60.19-1.3-88.42m6.87 2.6c0.59 11.9 5.68 23.98 2.28 35.81-4.26 18.24 2.79 37.17-3.87 55.08-5.92 12.57-3.94 27.67-3.15 40.56 28.16-33.35 39.47-83.31 18.46-123.14-1.82-6.08-8.62-6.7-13.72-8.31m146.6 0.75c-24.79 17.79-12.1 55.63-4.61 80.16 17.7 9.66 17.84 33.87 37.34 40.69 21.09 10.23 42.82 19.34 64.72 27.5 3.94 10.5-9.49 7.48-14.78 4.15 7.13 10.45 3.12 24.73 9.5 35.9 19.8 34.2 53.68 56.61 82.76 82.34 5.36 3.06 1.43 8.86 1.07 13.48 6.04 0.49 12.6-4.88 17.93-0.56-4.22 9.99-18.59 10.33-23.61 20.11-33.86 44.04-75.2 87.39-91.41 140.45-12.52 4.08-8.36 23.58-21.37 26.96 0.11 3.03 26.65 3.12 16.52 12.29-21.28-10.54-44.61-1.97-64.52 7.55-12.55-5.71-23.08 7.52-35.41 10.42-12.71 25.04-18.65 53.04-24.86 80.29-2.76 5.96 5.1 7.27 7.51 3.35 10.4-22.76 14.61-48.7 27.59-70.47 5.93-3.79 2.61 5.56 1.11 8.29-10.22 21.69-14 45.29-21.17 67.62 5.51 4.76 9.6-2.57 12.39-6.59 5.5-19.07 11.78-37.92 17.85-56.81 2.77-3.86 3.74-11.9 10.26-10.62-7.15 22.61-14.72 45.3-20.71 68.34-2.32 10.83 9.55 1.88 11.63-2.77 8.86-19.65 14.5-40.79 25.69-59.34 1.94-3.14 6.26 0.2 4.12 3.14-8.95 19.2-15.88 39.31-24.11 58.79-0.44 3.52 9.52 0.09 2.88-1.49-1.1-8.42 14.03 0.93 14.86-7.64 6.72-18.01 16.04-36.79 33.49-46.45 14.45-16.79 39.78-17.17 53.83-34.18 34.81-34.5 74.99-63.92 104.47-103.51 18.79-18.94 20.66-47.26 29.86-71.07-1.95-13.45-6.24-27.86-11.63-40.16 3 43.91-13.4 87.98-40.62 122.03-4.94 1.29 0.36-5.91 1.41-7.79 30.03-43.89 43.9-101.93 22.05-151.91-24.7-34.34-40.18-76.47-72.5-104.49-12.6-8.64 0.52 22.88-12.36 12.3-6.07-25.56-5.13-53.57-17.23-77.61-13.52-18.2-27.85-36.53-47.38-48.67-20.73-8.5-39.18-26.91-62.56-24.02m-56.07 9.89c-10.99 5.01-25.17 6.24-31.83 17.82 18.59 39.79 8.44 89.5-19.19 122.63-15.26 16.33-37.19 21.3-57.4 28.59 5.19 25.42 22.17 46.9 32.6 70.53 8.17 18.14 28.52 24.17 46.78 25.23 35.42 7.05 70.47-10.06 96.77-32.61 11.58-14.79 10.48-34.39 13-51.97-11.2-20.64 9.14-42.12-2.53-63.47-10.62-8.56-19.45-18.95-27.03-30.36-3.73-7.68-2.05 2.51-4.91 3.07-6.29-13.96-17.56-25.34-23.5-39.59-1.86-15.99-8.47-32.76-1.57-48.49-3.05-5.4-15.38-0.13-21.19-1.38m-61.53 5.89c-2.83 3.96 2.29 10.37 4.39 14.02 11.26 7.08 16.7 22.44 11.27 34.79-9.58-2.41-2.65-18.97-12.75-23.45 3.11 13.52 0.73 27.32-2.03 40.66-1.36 8.25 8.48 13.21 6.62 21.66-0.77 4.22 0.87 16.61-6.47 13.48-1.51-6.95 1.34-17.04-3.45-22.37-10.98 17.26-16.56 38.9-25.16 57.97-8.38 0.25-1.48-8.86-3.09-12.82-8.31 10.77-28.17 10.41-32.51 24.54 9.55 9.49 11.04-10.56 19.59-10.45 4.62 5.13-5.4 8.54-5.55 13.75 14.42-2.03 34.5-4.85 38.75-21.21 3.9-6.44-0.55-17.04 8.34-20.08 5.73 7.44-1.5 17.15-3.29 25.22 12.65-12.04 26.7-25.94 27.64-44.36-3.77-11.41-7.61-23.43-12.25-34.27 12.59-4.81 14.32 16.32 16.65 23.5 8.61-26.87 4.23-68.18-26.7-80.58m-88.37 13.25c-10.32 1.61-17.08 12.95-28.56 10.76-10.56-2.64-11.98 8.69-16.72 14.69-10.4 5.02-24.98-1.83-31.68 9.51-7.66 5.23-15.19-5.45-22.18 1.18-17.51 5.05-2.09 22.32 4.46 31.01 12.41-5.31 25.73-11.13 39.45-13.28 3.22 6.79 3.16-5.81 0.53-8.09-3.06-2.76-9.55-7.2-4.04-11.16 8.65 2.07 10.94 13.31 13.86 20.38 5.86 3.05 18.73 2.79 16.62-7.05-4.72-2.06-12.55-11.72-6.09-14.25 12.02 15.21 29.78 0.58 44.19-5.83 1.23-9.52-1.78-21.7-9.84-27.87m-186.59 24.76c-13.16 5.05-14.14 19.75-21.62 29.36-8.34-2.79-1.66 12.15-8.52 12.36-1.26-1.93-2.02-4.13-3.16-6.12-15.22 29.09-16.37 64.95-6.84 95.51-31.73 47.32-14.21 108.43-3.12 159.89 4.53 1.91 7.72 8.89 13.12 7.14 16.64-22.57 18.7-51.92 26.2-78.22 0.22-27.52 4.37-54.88 3.52-82.4 1.06-8.48-14.39-2.54-10.88-10.66 10.59-8.54 16.89-21.89 29.89-27.25 16.24-24.97 27.91-56.26 18.8-86.51-7.22-13.8-24.06-13.25-37.39-13.1m205.82 11.11c-7.59 10.67 10.34 15.42 12.1 5.8 2.82-6.47-8.46-6.02-12.1-5.8m-148.08 0.74c0.31 15.23 9.4 32.44 26.49 32.13-2.09-10.68-14.59-16.92-9.76-29-6.15 2.47-10.75-3.41-16.73-3.13m140.36-0.19c-5.18 8.34-17.07 9.29-22.44 16.05 8.65 4.91 33.36-2.49 22.44-16.05m-39.12 29.42c-3 1.09-8.29 0.23-10.05 2.54 5.12 13.5 5.33 29.82 14.98 41.05 3.85-0.89 12.15-2.4 8.78-7.95-5.3-11.25-5.6-28.6-13.71-35.64m-26.01 1.99c-5.55 1.52-28.84 8.4-11.1 9.34 5.73-0.14 23.37-6.6 11.1-9.34m33.97-0.46c2.87 9.83 5.79 19.83 9.66 29.28 3.33-2.27 7.83-5.29 4.08-9.19-5.72-5.61-5.49-18.56-13.74-20.09m-76.01 8.43c1.98 19.86 24.9 27.25 41.68 31.6 10.24-2.11 9.49-16.32 7.94-24.13-11.71 1.62-24.26 8.67-36.84 6.24-7.79-1.67-3.29-16.13-12.78-13.71m-12.04 34c-7.34 2.02-12.69 8.03-19.24 11.64-10.25 4.05-5.98 18.69 0.82 24.27 6.76 9.7 17.41 15.53 25.44 23.61 5.32 25.93 15.55 54.18 38.55 69.33 26.59 24.63 67.58 22.46 100.26 12.93 18.46-1.81 28.08-23.14 22.34-39.47-9.64-20.19-24.66-38.66-25.98-61.84-7.77-2.4-15-5.95-21.71-10.5-30.47-1.58-65.52-4-91.21-23.9-9.82-1.52-19.56-4.42-29.27-6.07m366.08 12.03c-11 16.52-1.2 40.68 7.5 56.9 12.7 35.89 48.47 54.38 74.77 79.2 7.51 3.2 15.99 5.2 23.9 3.14 10.17 5 9.61-6.53 12.28-12.53-18.6-17.02-39.7-31.42-55.99-50.83-16.77-19.15-38.04-40.6-35.64-67.94-4.4-11.58-17.51-7.29-26.82-7.94m-415.9 23.05c-8.44 1.06-16 5.64-22.26 11.17 3.44 18.16-1.91 36.32-2.14 54.58 2.77 34.7-10.55 67.52-19.42 100.39-2.86 7.85-9.01 14.96-15.82 19.19-8.92-3.64-16.5 1.91-19.65 10.65-10.89 47.16-17.31 98.01-3.3 145.01-2.16 39.57-4.08 79.25-5.83 118.86 6.6 5.87 16.9 0.99 24.27 5.71-4.64-58.38 9.03-117.05 6.05-175.54 3.87 2.32 7.91-5.06 9.6 0.37 23.23-40.06 38.62-85.19 34.31-132.04 14.35-21.25 18.83-47.36 26.11-71.55 3.87-23.59 11.78-47.01 9.18-71.13-6.58-5.41-11.83-14.8-21.1-15.67m409.06 53.93c-17.37 7.26-23.99 28.41-42.33 33.78-31.24 16.32-64.25 37.76-101.38 27.97 6.57 20.11 28.59 24.19 43.15 33.98-12.25 3.17-30.83-3.01-41.56-12.43-8.58-11.31-15.7-24.35-26.56-33.63-6.46-4.82-12.05 2.45-16.6 6.25-27.27 14.89-60.22 9.11-89.27 12.38 4.8 0.24 8.03 3.57-0.45 3.1-25.29-3.06-51.69-11.6-69.02-31.2-9.34-9.45-11.02-24.29-19.48-33.52-7.04 14.94 9.06 27 10.49 40.89 8.24 14.36 27.78 23.51 27.22 41.99 2.4 36.15 22.51 67.56 44.25 95.17 24.14 24.35 60.39 27.8 92.02 34.05 19.35-2.42 39.2-3.38 57.99-9.02 24.56-10.31 54.93-5.85 75-26.13-7.38 0.86-14.84-0.1-22.06-1.63-27.11-18.68-65.04-24.5-96.34-12.66-6.25 3.28-4.91-3.09-1.48-3.68 33.87-14.65 72.98-7.88 105.83 6.26 21.21 5.12 47.15-8.05 65.12-6.34 15.84-11.92 31.08-31.15 32.99-50.9 1.82-35.03-4.42-70.62-10.6-105.29-3.29-5.62-10.35-9.81-16.93-9.39m-386.44 30.74c-6.76 20.04-8.96 41.26-15.64 61.32-11.57 31.28-9.16 65.63-19.91 97.11-7.6 23.54-19.58 45.19-31.69 66.46-4.97 48.13-4.69 97.94-4.86 146.9 74.77-17.72 151.83-19.39 227.67-25.97 7.67-4.58 0.34-15.59 1.78-22.9-4.65-19.09 6.86-39.34-1.69-57.63-16.66-18.65-27.14-41.93-29.91-66.76-0.29-13.25-15.15-18.87-21.62-28.77-28.27-24.91-47.6-58.55-55.9-95.15-3.67-31.97-36.46-47.07-48.23-74.61m431.51 8.34c-13.54 16.39-7.19 39.57-7.2 58.88 12.2 7.28 19.89 19.68 29.7 29.68 11.35-12.23 18.94-27.16 27.98-41.04 3.12-5.54-6.03-6.85-8.29-10.72-10.45-14.98-25.12-30.76-42.19-36.8m-543.2 56.91c-27.94 21.44-33.04 60.9-36.33 93.52 4.91 23.71 8.16 47.74 8.87 71.97-9.19 46.36-11.63 94.43-6.31 141.56 9.2 1.78 18.62 2.67 27.54 5.7 4.04-39.59 5.8-79.58 5.56-119.38-10.24-32.9-7.92-67.39-5.25-101.25 4.77-22.63 5.28-46.99 17.31-67.38-5.46-7.17-2.82-21.46-11.39-24.74m896.25 0.25c-29.9 3.94-59.6 9.04-88.7 17.15-0.9 2.13-0.5 5.69-3.4 5.88-34.42 7.06-71.51 9.9-100.75 31.15-20.11 20.36-42.76 41.56-53.57 68.29 20.45-4.28 41.64-1.49 62.26-3.66 3.56-0.04 10.51-1.8 10.56 3.47-27.41 3.49-55.69 4.16-81.89 14.1-29.57 1.79-45.25 47.45-14.38 61.31 23.52-4.59 48.95-3.39 72.23 3.76 9.74 5.46 18.92 12.19 29.16 16.64 19.37-6.87 40.59-9.15 59.58-18.03 25.1-10.82 52.1-16.96 75.7-31.28 20.5-2.24 37.5-17.53 57.3-23.83-6.8-3.7-22.7 1.72-30.3-7.09-3.9-1.04-2.3-7.1 1.5-6.15 18.7 3 37.6 5.05 56.3 8.48-9.8-10.18-14.8-29.36-2.1-39.28 4.4-9.11 11-19.87 23-18.01 17.5-6.51 36.2-0.07 53.6 3.43 7.8-5.13 1.6-12.91-3.8-16.96-10.4 16.29-33.6 5.93-48.4 2.75-7.4-8.04-25-14.97-19.9-27.51-13.4-3.17-24.4 9-37.6 6.39 13.8-5.13 26.8-17.55 42.1-15.63 5.7 14.27 22.5 20.22 35.9 25.14 9.2 7.33 24.3-11.84 13.8-17.8-16.1-14.24-30.4-31.77-51.7-38.4-17.7-8.09-37.7-4.53-56.5-4.31m-360.32 20.77c-12.29 31.17-35.2 60.42-69.3 68.5 15.63 20.85-25.28 38.21-33.08 16.14-14.2 7.38-29.95 10.19-45.79 10.98-22.12 9.5-46.29 12.1-69.48 17.88-17.93 3.98-48.87-7.21-57.2 15.48 2.81 20 11.18 39.25 24.91 54.31 4.43 4.6 5.89 17.1-2.88 16.99-6.59 34.73 6.41 70.64 34.71 92.38-5.34 7.89-9.05 5.11-14.99-1.8 2.77 15.84 11.2 29.99 21.84 41.79 23.07 12.17 51.84 12.54 75.79 10.39-26.2-10.86-48.97-30.25-69.46-48.64 18.39-2.01 31.72 17.13 46.97 25.93 20.66 14.51 45.99 19.7 70.76 21.41 28.38 1.18 53.97-14.41 81.08-18.31 14.07-10.35 30.05 2.73 45.09 3.97 32.86 4.02 67.09 4.48 99.02-5 3.24-4.06 6.61-10.43 13.06-7.04 32.49 9.4 65.67-2.7 98.41-4.62 22.66 8.1 46.36-8.36 69.26-10.79 13.8 1.93 26.7 7.28 40.3 9.46 35.8-2.13 70.6 13.57 106.1 2.18-12.4-5.63-26-10.14-39.4-9.19 8.2-15.04 32.2 1.29 44.4 1.53 5.1-10.5-14.2-9.73-21.4-11.4-5.1-5.15-19.5 0.86-18.8-7.82 9.4 0.1 19.6-1.66 28.4 2.57 7.6 4.03 21.2 4.93 18.9-7.16-16.2 2.32-30.9-6.11-46.6-5.32-2.9-2.58 0.7-7.58 4.6-6.89 14.7 0.28 29 6.54 43.4 8.42 5.5-19.46-19.1-17.2-30.7-16.3-6-3.66-17.6 1.93-20.4-5.24 7.3-5.4 16.7-4.36 25.2-5.27 10.2 0.24 15.9-9.5 22.9-15.4 3.1-12.36-11-16.57-20.1-14.89-5.4 7.11-3.8 17.74-10 24.65-7.8-3.52 2.8-16.42-1.6-21.94-13.6 3.22-27.8 8.2-41.6 10.02-25.3-1.48-50.2 9.5-75.4 12.74 6.2 16.17 0.5 39.82-17 46 7.2-12.18 17.3-29.62 6.3-43.93-6.7 0.29-14.1 1.77-19.8-2.85-24.9-13.55-54.21-6.02-80.49-11.02-20.2-20.75-42.73-41.78-71.62-48.95-17.27 3.22-39.93-8.47-53.43 5.65 17.86 20.07 46.76 24.29 67.76 40.31-0.23 4.09-5.6 2.04-7.86 0.75-26.78-13.87-58.3-22.88-77.25-46.87 5.54 26.65-19.85 50.44-45.81 52.79 28.74 32.11 75.02 42.21 116.42 50.58 7.04 1.25 0.04 4.67-3.86 2.8-38.08-6.84-77.86-15.72-109.27-39.59-11.85-13.8-28.42-22.01-42.09-33.38-12.1 10.4-25.47 24.12-42.73 23.09-11.41-3.48-19.75 11.83-30.97 7.25-13.1 4.05-30.61 10.99-41.47-0.2-22.13 8.03-13.3-21.84-8.25-33.49-2.83-7.87-20.65 1.03-21.88-10.39-3.45-16.31 13.16-23.49 25.19-28.35-4-6.04-11.93-0.82-17.48-1.58-25.15-0.56-50.49 6.57-72.28 18.83-4.34 2.25-11.18-1.2-7.76-6.61 7.64-5.27 17.12-7.19 25.57-10.94-5.01-2.87-16.69-3.88-13.15-12.16 30.48-1.89 61.81-11.54 93.19-12.4 12.24-4.32 22.71-12.92 34.96-17.35 17.26-4 37.02-2.42 51.48-14.4 13.8-13.52 19.49-32.64 29.59-48.67 4.6-8.22-8.03-20.62 1.34-26.83 6.36-2.02 4.3 5.66 6.37 9 5.98-9.79 13.41-18.81 18.79-28.93-6.69-7.4-13.07-16.95-19.43-22.86m507.72 51.91c-0.2 7.17-0.7 14.34-1.9 21.43 24.9 18.83 56.8 25.07 82.8 42.46 13.5 9.58 28.4 17.21 41.2 27.78 1.6 1.76 0.5 2.39-1.3 1.36-24.6-10.4-45-29.05-70.5-37.58-23.9-7.7-45.6-21.18-69.7-28.3-16.1-2.2-31.5-7.74-47.2-11.15-8.9 8.57-15.5 19.52-25.2 27.4 3.6 20.19 20.5 35.91 38.2 44.88 33.1 44.93 89.6 73.76 146 65.9 27.8 12.33 56.1 24.92 86.8 27.35 17.2 5.74 35.6 11.96 48.2 25.76 18.8 3.91 36.4 30.06 55.6 14.22 4.2-3.98-10.4-4.74-4.2-8.09 7.8-4.73 13.5 5.97 11.6 12.46-15.2 16.88-39 2.34-53.4-8.05 0.9 10.18-7.6 22.57 2.2 31.8 13 11.36 33.1 5.39 48.8 7.72 15.1-4.44 29.8-13.7 46.2-10.97 14.7 3.3 30.3 3.44 45.2 0.86 40.2-12.97 87.6 5.23 125.7-16.53-16.6-11.87-37-1.76-55.3-2.66-13.7-8.21-27.3-17.15-43.6-19.5-29.5-8.28-58.4-19.18-89-22.98 4.9 2.92 9.1 14.63 0.2 14.94-10.6-17.82-34-22.07-50.3-33.84-19.2-13.45-44.4-17.36-59.9-36.1-58.1-57.72-126.4-110.57-207.2-130.57m-95.5 96.3c-27.7 4.36-55.3 10.22-82.4 17.49-39.1 18.63-78.26 37.33-120.97 46.07 6.92 14.65 27.81 25.07 42.8 15.72 18.67-6.16 35.87 6.58 53.27 11.15 36.5-3.71 71.4-17.89 108.5-17.2 21.1 0.38 43.1-20.28 62.8-5.86 17.3-1.91 36.3-3.43 52.4-6.59-10.4-4.89-20.2-10.83-30.7-15.51-19.2-8.69-30.8-27.31-46-41.09-11.7-4.32-26.1-4.68-39.7-4.18m-393.64 17.82c-9.28 3.93-17.75 9.79-27.95 11.49-24.76 10.57-25.84 44.5-46.31 58.87 16.82-2.62 30.92-12.87 40.84-26.44 9.8-4.49 14.9 13.77 25.53 10.52 12.38 15.64 34.48 6.17 46.29-5.44 12.04-9.07 9.2-25.64 7.91-38.65-12.64-9.92-30.8-10.74-46.31-10.35m-148.35 16.96c-8.17 3.95-19.82 6.75-20.58 17.45 4.55 4.9 13.82 2.06 18.72 1.21 0.4-5.58 9.96-19.1 1.86-18.66m876.99 10.78c17.2 14.25 45.9 21.96 65.4 37.82 32.8 0.61 65.8 10.29 97.4 19.91 28-6.39 60.4-9.33 85.7 7.13 11.1 3.04 13.8 16.07 24.2 20.08 4.1 16.05-19.8 16.52-30 18.98-24.1 9.92-49.1 0.88-74 2.66-46 12.38-94 14.06-141.2 18.18-24.3-3.91-49.8-7.39-69.7-23.17-21.9 1.08-47.6 3.48-67.3-7.59-4.7-0.86-11.5 9.31-14 1.97 4.6-12.36 20.8-5.82 29.9-10.68 24.3-6.11 49.6-8.8 74-15.38-25.3-19.09-57.4-24.4-87.8-31.16-28.5-17.43-62.2-13.21-93.6-7.17-21.6-1.07-40.3 6.52-62.2 8.43-2.8 7.69-9.7 12.41-15.2 18.07 4.5 4.6 12.9 4.63 18 9.3 1.7 16.81-6.1 32.8-9.5 49.01-3.3 12.13-18.6 8.37-27.9 10.74-0.1 3.89-2.8 8.86-7.1 8.83-41.6-0.26-83.2 0.48-124.2 7.47-30.1 4.69-59.6-2.6-89.85-1.57-10.14-2.3-22.62-7.13-32.67-1.31-28.19-6.96-55.93 5.93-84.22 5.03-21.41-1.02-42.76 2.32-64.19 1.36-27.3 8.25-57.65-0.23-85.72 7.89-29.35 0.89-56.88 13.61-86.33 12.29-30.13 4.2-60.17-2.48-89.23-9.65-21.86-2.31-54.08-0.74-61.75-27 1.51-12.91 13.32-19.99 23.16-27.04 5.15-3.65-0.27-9.02-2.64-12.54-5.98-5.03-3.4-18.45-12.93-18.75-30.6 5.47-62.33 4.33-93.84 7.86 1.76 3.14 18.97-2.37 12.06 4.33-16.11 3.34-33.69 2.79-48.18 11.66-42.23 11.94-86.92 30.92-110.18 69.92-37.72 10.04-75.29 18.4-113.21 28.61-22.94 8.58-44.95-12.91-67.66-5.5-14.74 2.05-30.14 6.74-41.23 16.94-3.86 8.3 6.48 9.24 11.55 11.59 24.41 12.08 51.39 18.35 78.54 19.68 85.9 3.59 172.27-0.46 257.78 10.21 31.16 3.19 61.35-11.15 92.51-4.86 23.04-0.99 45.75-8.59 68.98-4.9 33.41-3.88 66.95-14.93 100.68-7.54 45.63-1.45 90.21 3.98 136.06 2.01 31.56 4.19 61.86-11.26 93.48-6.68 34.88 5 69-6.77 103.88-6.28 41.29-1.28 81.65-9.96 121.95-18.21 35 4.32 69.8-9.58 104.3-0.37 33.5 0.42 67.1-9.05 100.5-3.71 35.1-2.61 70.2-1.95 105.2-3.62 36.3-6.24 72.2-15.59 109.1-16.98 102.1-17.45 207.2-15.78 308.3-39.41 11.7-7.13 22-16.38 33.6-23.78 23.9-13.8 22.5-47.92 12.6-69.99-12.6-6.21-22.1-19.06-37.1-19.89-11.2-2.42-23.3-0.28-33.9-5.17-12.3-5.26-27.4 0.69-38.8-7.55-43.7-5.68-87.9 4.86-131.5-3.18-40.1-1.53-80-5.64-120-7.33m184.1 61.36c-9.3 0.88 4.3 5.64 7.2 5.78 11 6.65 21.8-6.37 33.2-1.45 6 10.74-21.1 4.79-11.4 13.89 12.7-0.99 25.4-6.22 38.6-5.25-19.3-13.68-44.9-14.59-67.6-12.97m-1511.2 37.86c-39.25 13.72-73.99 37.37-106.4 62.94 1.07 4.38 9.48 6.33 12.71 2.73 12.77-11.85 28.57-19.47 42.47-29.84 2.18-2.88 10.22-4.8 7.17 0.95-15.25 9.8-30.53 20-44.42 31.77-2.69 2.02-4.58 6.99 0.52 6.83 8.28 3.22 11.06-6.12 17.2-9.08 16.45-9.34 31.5-21.2 48.67-29.22 3.53-1.49 2.49 3.39 0.21 4.16-19.31 11.34-38.36 23.61-55.42 38.02-2.2 10.3 11.17 2.83 16.12 3.01 15.35-13.76 34.24-23.35 51.09-35.3 3.13-0.82 9.48-6.68 11.64-2.44-19.06 13.89-42.44 26.32-57.46 42.97 32.97-9.36 67.3-22.32 92.95-45.95-4.16-8.08 2.87 0.24 7.34-3.73 5.66 6.71 12.35-3.25 18.99-3.01 5.43 9.86-9.91 7.92-15.07 11.58-9.87 3.56-23.14 16.1-14.43 25.97 9.55-4.34 20.46-10.28 31.88-10.18 18.58-11.56 16.56-42-0.62-54.11-21.66-2.54-45.21-7.08-65.14-8.07m1694.8 1.91c-6.2 17.18-25.1 23.57-37.5 35.49-38.9 23.57-86.5 12.09-128.3 25.84-27.3 2.59-55.1 3.43-81.6 11.1-24.6-1.49-49.6 0.26-73.9 4.2-39.2 8.14-79.4 7.26-118.3 16.76-40.1 11.7-82.4 3.48-123.4 8.39-45-7.41-89.6 12.55-134.4 2.57-42.8 4.28-86.4 0.36-128.3 11.89-33.51 9.2-68.61 7.75-102.9 11.08-22.35 1.6-44.49 7.55-67.03 4.92-43.29-5.02-85.28 12.58-128.56 6.52-21.94-4.42-44.03 5.75-65.86-0.06-17.89-5.06-36.45 1.73-54.4-2.67-30.12-6.94-59.59 6.67-89.29 8.83-23.77-7.52-48.03 3.58-72 4.95-14.87-3.85-30.6-2.55-45.08 2.44-46.53 6.99-93.48-9-139.93-6.17-85.88-5.48-177.56 10.43-258.31-26.59 2.34 16.91-3.07 37.93 9.13 52.17 40.06 20.4 86.79 13.47 129.75 22.09 29.03 3.08 57.77 11.48 87.2 8.25 13.71-0.77 27.34-4.16 41.11-2.68 45.98 6.47 92.23-0.43 138.28 0.52 75.04 20.52 153.21-5.19 229.43 4 52.44-2.11 104.63-11 157.12-10.84 29.15-3.69 58.8-9.51 88.13-4.31 23.17 0.79 45.5-10.27 68.7-5.97 19.4 3.35 38.8-1.18 58.21-1.62 31.2-3.23 60.2-18.74 91.9-17.25 56.2-5.73 113.1-0.62 169.1-7.92 52-12.81 105.8-6.95 158.8-8.15 106-13.35 213.7-18.89 318.4-41.9 27.6-2.41 57.2 1.17 79.5-18.45 23.2 2.37 38.1-23.27 32.7-44.03-2.4-13.47-1.6-32.59-8.4-43.4m-872.54 20.31c-14.3 1.72-30.23 0.41-42.38 6.42 16.18 1.33 31.87-3.03 47.56-6.07 4.43-1.95-6.63-0.4-5.18-0.35z"/>
  <path id="path6" d="m427.26 72.3c18.46 11.12 10.26 45.58-9.73 50.41 2.55-9.63 14.56-17.84 10.32-29.48 0.41-6.22-9.44-17.14-0.59-20.93z"/>
  <path id="path8" d="m368.18 73.08c12.16 9.68 18.16 30.35 36.06 30.83 6 5.23-5.39 6.28-9.2 4.15-12.16-5.23-38.5-19.53-26.86-34.98z"/>
  <path id="path10" d="m383.41 112.31c4.58 0.94 3.48 9.64 8.12 12.17 4.93 5.38 18.63-1.14 19.32 7.29-7.61 4.4-18.58 1.49-26.91-0.57-8.25-2.58-9.08-15.92-0.53-18.89z"/>
 </g>
</svg>
